<svg viewBox="0 0 1024 1024" xmlns="http://www.w3.org/2000/svg">
  <path d="M512 74.666667C264.533333 74.666667 64 275.2 64 522.666667S264.533333 970.666667 512 970.666667s448-200.533333 448-448S759.466667 74.666667 512 74.666667z m0 832c-211.2 0-384-172.8-384-384s172.8-384 384-384 384 172.8 384 384-172.8 384-384 384z" fill="#C8161D"/>
  <path d="M512 288c-70.4 0-128 57.6-128 128s57.6 128 128 128 128-57.6 128-128-57.6-128-128-128z m0 192c-35.2 0-64-28.8-64-64s28.8-64 64-64 64 28.8 64 64-28.8 64-64 64z" fill="#C8161D"/>
  <path d="M720 672c0-115.2-93.866667-208-208-208s-208 92.8-208 208v64h416v-64z m-352 0c0-78.933333 65.066667-144 144-144s144 65.066667 144 144v0H368v0z" fill="#C8161D"/>
</svg>

