<svg viewBox="0 0 1024 1024" xmlns="http://www.w3.org/2000/svg">
  <path d="M896 256H704V170.666667c0-23.466667-19.2-42.666667-42.666667-42.666667H362.666667c-23.466667 0-42.666667 19.2-42.666667 42.666667V256H128c-23.466667 0-42.666667 19.2-42.666667 42.666667v554.666666c0 23.466667 19.2 42.666667 42.666667 42.666667h768c23.466667 0 42.666667-19.2 42.666667-42.666667V298.666667c0-23.466667-19.2-42.666667-42.666667-42.666667zM384 192h256v64H384V192z m469.333333 640H170.666667V341.333333h682.666666v490.666667z" fill="#999999"/>
  <path d="M298.666667 469.333333h426.666666v64H298.666667zM298.666667 597.333333h426.666666v64H298.666667z" fill="#999999"/>
</svg>

