<svg viewBox="0 0 1024 1024" xmlns="http://www.w3.org/2000/svg">
  <path d="M512 74.666667C264.533333 74.666667 64 275.2 64 522.666667S264.533333 970.666667 512 970.666667s448-200.533333 448-448S759.466667 74.666667 512 74.666667z m0 832c-211.2 0-384-172.8-384-384s172.8-384 384-384 384 172.8 384 384-172.8 384-384 384z" fill="#999999"/>
  <path d="M512 288c-70.4 0-128 57.6-128 128s57.6 128 128 128 128-57.6 128-128-57.6-128-128-128z m0 192c-35.2 0-64-28.8-64-64s28.8-64 64-64 64 28.8 64 64-28.8 64-64 64z" fill="#999999"/>
  <path d="M283.733333 736c0-126.933333 102.4-230.4 227.2-230.4h2.133334c124.8 0 227.2 103.466667 227.2 230.4v64H283.733333v-64z m64 0v0h328.533334c-6.4-89.6-78.933333-160-164.266667-160-85.333333 0-157.866667 70.4-164.266667 160z" fill="#999999"/>
</svg>

