<svg viewBox="0 0 1024 1024" xmlns="http://www.w3.org/2000/svg">
  <path d="M360 184h-8c4.4 0 8-3.6 8-8v8h304v-8c0 4.4 3.6 8 8 8h-8v72h72v-80c0-35.3-28.7-64-64-64H352c-35.3 0-64 28.7-64 64v80h72v-72z"/>
  <path d="M832 256H192c-17.7 0-32 14.3-32 32v32c0 4.4 3.6 8 8 8h60.4l24.7 523c1.6 34.1 29.8 61 63.9 61h454c34.2 0 62.3-26.8 63.9-61l24.7-523H888c4.4 0 8-3.6 8-8v-32c0-17.7-14.3-32-32-32z m-452.4 620c-4.4 0-8-3.6-8-8V416c0-4.4 3.6-8 8-8h36c4.4 0 8 3.6 8 8v452c0 4.4-3.6 8-8 8h-36z m152 0c-4.4 0-8-3.6-8-8V416c0-4.4 3.6-8 8-8h36c4.4 0 8 3.6 8 8v452c0 4.4-3.6 8-8 8h-36z"/>
</svg>

