<svg viewBox="0 0 1024 1024" xmlns="http://www.w3.org/2000/svg">
  <path d="M857.28 344.992h-235.104l32.256-154.016c4.288-20.416-1.952-41.696-16.704-56.96-14.72-15.232-35.52-22.688-56.192-20.224-38.752 4.64-69.28 35.936-73.024 74.88l-29.92 310.976H331.04c-51.264 0-93.024 41.76-93.024 93.024v310.976c0 51.264 41.76 93.024 93.024 93.024h474.784c44.672 0 82.56-31.616 91.136-76.096l77.28-401.056c11.136-57.824-32.192-113.536-91.136-113.536h-25.824zM309.024 942.656V545.664h75.04v396.992h-75.04z"/>
</svg>

