<svg viewBox="0 0 1024 1024" xmlns="http://www.w3.org/2000/svg">
  <path d="M877.1 238.7L770.6 132.3c-13-13-30.4-20.3-48.8-20.3s-35.8 7.2-48.8 20.3L558.3 246.8c-13 13-20.3 30.5-20.3 48.9 0 18.5 7.2 35.8 20.3 48.9l89.6 89.7c-41.7 62.1-90.6 114.8-145.4 156.6-54.8 41.8-109.6 71.6-164.4 89.5l-89.7-89.7c-13-13-30.4-20.3-48.8-20.3-18.4 0-35.8 7.2-48.8 20.3L35.3 706.1c-13 13-20.3 30.5-20.3 48.9 0 18.4 7.2 35.8 20.3 48.8l106.4 106.4c26.1 26.1 68.5 36.1 104.1 24.7 37.1-11.8 105.8-42.3 188.2-90.6 82.4-48.3 161.8-111.7 238.7-189.1 76.9-77.4 140.3-156.3 190.1-236.5 49.8-80.2 84.1-149.3 102.8-207.1 11.3-35.1 1.4-77.1-24.5-103.9zM862.7 348c-17.9 55.1-50.4 120.4-97.5 196.2-47.1 75.8-109 152.9-185.4 231.4-76.4 78.5-156.1 143.3-239 194.2-82.9 50.9-152.7 81.4-209.5 91.7-9.8 1.8-19.8 0.9-29.1-2.7l-0.3-0.1-106.5-106.5c-3.6-3.6-5.6-8.4-5.6-13.5 0-5.1 2-10 5.6-13.6l114.5-114.5c3.6-3.6 8.4-5.6 13.5-5.6 5.1 0 10 2 13.6 5.6l110.7 110.7c14.2 14.2 35.9 17.9 53.9 9.3 67.5-32.2 127.9-74.3 180.1-125.6 52.2-51.3 96.2-110.9 131.5-177.9 9.1-17.3 6.1-38.5-7.5-52.1L497.8 247.7c-3.6-3.6-5.6-8.4-5.6-13.5 0-5.1 2-10 5.6-13.6l114.5-114.5c3.6-3.6 8.4-5.6 13.5-5.6 5.1 0 10 2 13.6 5.6l106.5 106.5c10.1 10.1 12.8 24.9 7.8 36.4z"/>
</svg>

