<svg viewBox="0 0 1024 1024" xmlns="http://www.w3.org/2000/svg">
  <path d="M128 384V213.333333c0-46.933333 38.4-85.333333 85.333333-85.333333h170.666667c23.466667 0 42.666667-19.2 42.666667-42.666667s-19.2-42.666667-42.666667-42.666666H213.333333C119.466667 42.666667 42.666667 119.466667 42.666667 213.333333v170.666667c0 23.466667 19.2 42.666667 42.666666 42.666667s42.666667-19.2 42.666667-42.666667z m853.333333 256c-23.466667 0-42.666667 19.2-42.666666 42.666667v128c0 46.933333-38.4 85.333333-85.333334 85.333333h-128c-23.466667 0-42.666667 19.2-42.666666 42.666667s19.2 42.666667 42.666666 42.666666h128c93.866667 0 170.666667-76.8 170.666667-170.666666v-128c0-23.466667-19.2-42.666667-42.666667-42.666667z m0-554.666667c-23.466667 0-42.666667 19.2-42.666666 42.666667v170.666667c0 23.466667 19.2 42.666667 42.666666 42.666666s42.666667-19.2 42.666667-42.666666V213.333333c0-93.866667-76.8-170.666667-170.666667-170.666666h-170.666666c-23.466667 0-42.666667 19.2-42.666667 42.666666s19.2 42.666667 42.666667 42.666667h170.666666c46.933333 0 85.333333 38.4 85.333334 85.333333v85.333334z m-896 384c0-23.466667-19.2-42.666667-42.666666-42.666666s-42.666667 19.2-42.666667 42.666666v128c0 93.866667 76.8 170.666667 170.666667 170.666667h170.666666c23.466667 0 42.666667-19.2 42.666667-42.666667s-19.2-42.666667-42.666667-42.666666H213.333333c-46.933333 0-85.333333-38.4-85.333333-85.333334v-128z m810.666667 85.333334H128c-23.466667 0-42.666667 19.2-42.666667 42.666666s19.2 42.666667 42.666667 42.666667h768c23.466667 0 42.666667-19.2 42.666667-42.666667s-19.2-42.666667-42.666667-42.666666z"/>
</svg>

