<svg viewBox="0 0 1024 1024" xmlns="http://www.w3.org/2000/svg">
  <path d="M512 74.666667l137.386667 278.357333 307.2 44.757333-222.293334 216.704 52.48 306.048L512 787.626667l-274.773333 144.490666 52.48-306.048L67.413333 409.386667l307.2-44.757334L512 74.666667m0-74.666667c-9.386667 0-18.773333 4.693333-25.6 14.08L343.04 344.746667 18.773333 391.68c-21.333333 2.346667-29.866667 27.733333-14.08 42.666667l234.666667 228.693333-55.466667 323.413333c-4.693333 21.333333 18.773333 37.12 37.12 27.733334L512 866.133333l290.986667 153.173334c18.773333 9.386667 42.666667-7.466667 37.12-27.733334l-55.466667-323.413333 234.666667-228.693333c14.08-14.08 7.466667-39.466667-14.08-42.666667L680.96 344.746667 537.6 14.08C530.773333 4.693333 521.386667 0 512 0z"/>
</svg>

