<svg viewBox="0 0 1024 1024" xmlns="http://www.w3.org/2000/svg">
  <path d="M862.72 181.76L842.24 161.28c-40.96-40.96-107.52-40.96-148.48 0L264.704 590.336c-8.192 8.192-12.288 18.432-14.336 30.72l-34.816 167.936c-4.096 18.432 2.048 38.912 16.384 53.248 12.288 12.288 28.672 18.432 45.056 18.432 4.096 0 10.24 0 14.336-2.048l167.936-34.816c12.288-2.048 22.528-8.192 30.72-14.336L919.04 378.88c40.96-40.96 40.96-107.52 0-148.48l-56.32-48.64z m-104.448 2.048c12.288-12.288 32.768-12.288 45.056 0l20.48 20.48c12.288 12.288 12.288 32.768 0 45.056l-34.816 34.816-65.536-65.536 34.816-34.816z m-456.704 587.776l20.48-98.304 77.824 77.824-98.304 20.48z m145.408-65.536l-102.4-102.4L694.272 253.952l102.4 102.4-349.696 349.696z"/>
</svg>

