<svg viewBox="0 0 1024 1024" xmlns="http://www.w3.org/2000/svg" fill="#666666">
  <path d="M857.28 344.992h-235.104l32.256-154.016c4.288-20.416-1.952-41.696-16.704-56.96-14.72-15.232-35.52-22.688-56.192-20.224-38.752 4.64-69.28 35.936-73.024 74.88l-29.92 310.976H331.04c-51.264 0-93.024 41.76-93.024 93.024v310.976c0 51.264 41.76 93.024 93.024 93.024h474.784c44.672 0 82.56-31.616 91.136-76.096l77.28-401.056c11.136-57.824-32.192-113.536-91.136-113.536h-25.824z m-548.256 597.664V545.664h75.04v396.992h-75.04z m552.224-426.304l-77.28 401.056c-2.912 15.136-15.872 25.92-31.168 25.92H384.064V545.632h181.984c18.176 0 33.664-13.024 37.12-30.848l38.56-400.544c1.28-13.344 11.776-23.904 25.088-25.28 7.136-0.832 14.208 1.664 19.488 6.976 5.28 5.472 7.776 12.672 5.824 19.616l-44.352 211.904c-3.648 17.408 8.544 34.496 26.368 36.992 1.568 0.224 3.136 0.32 4.672 0.32h282.72c20.096 0 34.976 19.008 31.968 38.848z"/>
</svg>

