<svg viewBox="0 0 1024 1024" xmlns="http://www.w3.org/2000/svg">
  <path d="M512 327c-97.2 0-176 78.8-176 176s78.8 176 176 176 176-78.8 176-176-78.8-176-176-176z m79.2 255.2C570 603.3 542.4 615 512 615s-58-11.7-79.2-32.8C411.7 561 400 533.4 400 503s11.7-58 32.8-79.2c21.2-21.2 48.8-32.8 79.2-32.8s58 11.6 79.2 32.8c21.2 21.2 32.8 48.8 32.8 79.2s-11.6 58-32.8 79.2z"/>
  <path d="M512 64C264.6 64 64 264.6 64 512s200.6 448 448 448 448-200.6 448-448S759.4 64 512 64z m0 820c-205.4 0-372-166.6-372-372s166.6-372 372-372 372 166.6 372 372-166.6 372-372 372z"/>
</svg>

