<svg viewBox="0 0 1024 1024" xmlns="http://www.w3.org/2000/svg">
  <path d="M768 490.666667c-53.12 0-100.373333 25.493333-130.133333 64.853333L381.013333 426.666667c5.546667-17.066667 8.96-35.413333 8.96-54.4 0-18.986667-3.413333-37.333333-8.96-54.4l256.853334-128.853334C667.626667 228.373333 714.88 256 768 256c88.213333 0 160-71.786667 160-160S856.213333-64 768-64s-160 71.786667-160 160c0 18.986667 3.413333 37.333333 8.96 54.4L360.106667 278.613333C330.346667 239.253333 283.093333 213.333333 229.973333 213.333333 141.76 213.333333 70.4 284.693333 70.4 372.906667s71.36 159.573333 159.573333 159.573333c53.12 0 100.373333-25.92 130.133334-65.28l256.853333 128.853333c-5.546667 17.066667-8.96 35.413333-8.96 54.4 0 88.213333 71.786667 160 160 160s160-71.786667 160-160-71.786667-160-160-160z m0-490.666667c52.906667 0 96 42.666667 96 96s-42.666667 96-96 96-96-42.666667-96-96 42.666667-96 96-96z m-538.026667 468.906667c-52.906667 0-95.573333-43.093333-95.573333-95.573334s43.093333-95.573333 95.573333-95.573333 96 42.666667 96 96-42.666667 95.146667-96 95.146667z m538.026667 362.666666c-52.906667 0-96-42.666667-96-96s42.666667-96 96-96 96 42.666667 96 96-42.666667 96-96 96z"/>
</svg>

