<svg viewBox="0 0 1024 1024" xmlns="http://www.w3.org/2000/svg">
  <path d="M512 64C264.6 64 64 264.6 64 512s200.6 448 448 448 448-200.6 448-448S759.4 64 512 64z m0 820c-205.4 0-372-166.6-372-372s166.6-372 372-372 372 166.6 372 372-166.6 372-372 372z"/>
  <path d="M512 256c-70.7 0-128 57.3-128 128s57.3 128 128 128 128-57.3 128-128-57.3-128-128-128z m0 192c-35.3 0-64-28.7-64-64s28.7-64 64-64 64 28.7 64 64-28.7 64-64 64z"/>
  <path d="M284 712c0-81.6 88.9-148 198.5-148H542c109.6 0 198.5 66.4 198.5 148v72H284v-72z m56.9-8v16H684v-16c0-48.4-56.8-88-126.5-88H482c-69.7 0-126.5 39.6-126.5 88z"/>
</svg>

